<svg width="28" height="25" viewBox="0 0 28 25" fill="none" xmlns="http://www.w3.org/2000/svg">
<path d="M2.08816 0.5C1.10836 0.5 0.304688 1.30049 0.304688 2.28032V22.3088C0.304688 23.2886 1.10942 24.0902 2.08816 24.0902L21.5 24.0902C21.7352 24.0891 21.7427 23.8972 21.7416 23.662C21.7416 23.4278 21.41 23.238 21.1759 23.2369L2.08924 23.2369C1.56717 23.2369 1.15796 22.8309 1.15796 22.3088L1.15691 6.03089H26.4525V22.3088C26.4525 22.8309 26.0433 23.2369 25.5212 23.2369L21.1759 23.2369C21.063 23.2359 20.9544 23.2812 20.8742 23.3603C20.7941 23.4405 20.7487 23.5491 20.7487 23.662C20.7477 23.7759 20.793 23.8845 20.8732 23.9657C20.9533 24.0459 21.063 24.0902 21.1759 24.0902H25.5202C26.5 24.0902 27.3036 23.2886 27.3036 22.3088L27.3047 2.28033C27.3047 1.30054 26.5 0.500019 25.5212 0.500019L2.08816 0.5ZM2.08816 1.35217H25.5211C26.0431 1.35217 26.4523 1.75822 26.4523 2.28029V5.17737H1.15672V2.28029C1.15672 1.75822 1.56609 1.35217 2.08816 1.35217ZM3.39279 2.68844C3.07744 2.68844 2.81484 2.95106 2.81484 3.26746C2.81484 3.58281 3.0764 3.84331 3.39279 3.84331C3.70815 3.84331 3.96865 3.5828 3.96865 3.26746C3.96865 2.9521 3.70814 2.68844 3.39279 2.68844ZM5.57811 2.68844C5.26275 2.68844 5.00015 2.95106 5.00015 3.26746C5.00015 3.58281 5.26171 3.84331 5.57811 3.84331C5.89346 3.84331 6.15396 3.5828 6.15396 3.26746C6.15396 2.9521 5.89345 2.68844 5.57811 2.68844ZM7.76342 2.68844C7.44806 2.68844 7.18546 2.95106 7.18546 3.26746C7.18546 3.58281 7.44702 3.84331 7.76342 3.84331C8.07878 3.84331 8.33927 3.5828 8.33927 3.26746C8.33927 2.9521 8.07877 2.68844 7.76342 2.68844Z" fill="#1B1B1B"/>
</svg>
