<svg width="19" height="29" viewBox="0 0 19 29" fill="none" xmlns="http://www.w3.org/2000/svg">
<path fill-rule="evenodd" clip-rule="evenodd" d="M12.5949 0.5C10.1505 0.5 8.18164 2.62603 8.18164 5.21088C8.18164 6.12904 8.43608 6.98262 8.85966 7.70548C8.88088 7.74314 8.90939 7.77621 8.94352 7.80274C8.97765 7.82928 9.01673 7.84875 9.05847 7.86002C9.10021 7.87129 9.14377 7.87415 9.18662 7.86841C9.22947 7.86267 9.27075 7.84845 9.30805 7.82659C9.34535 7.80473 9.37793 7.77565 9.40388 7.74107C9.42982 7.70649 9.44862 7.66709 9.45918 7.62516C9.46974 7.58324 9.47185 7.53962 9.46537 7.49687C9.4589 7.45413 9.44398 7.4131 9.42149 7.37617C9.05334 6.74793 8.83289 6.00891 8.83289 5.21088C8.83289 2.95467 10.5287 1.15125 12.5949 1.15125C14.6611 1.15125 16.3472 2.95381 16.3472 5.21088C16.3472 6.01154 16.1357 6.7495 15.7683 7.37608C15.7457 7.41299 15.7308 7.45403 15.7243 7.49679C15.7177 7.53956 15.7198 7.58319 15.7303 7.62514C15.7409 7.6671 15.7596 7.70655 15.7856 7.74117C15.8115 7.77579 15.8441 7.80488 15.8814 7.82677C15.9187 7.84866 15.96 7.8629 16.0029 7.86865C16.0458 7.8744 16.0894 7.87154 16.1311 7.86026C16.1729 7.84898 16.212 7.82948 16.2461 7.80292C16.2803 7.77636 16.3088 7.74328 16.33 7.70558C16.7552 6.98032 16.9984 6.12656 16.9984 5.21088C16.9984 2.62689 15.0393 0.5 12.5949 0.5Z" fill="black"/>
<path fill-rule="evenodd" clip-rule="evenodd" d="M12.5912 3.24219C11.4811 3.24219 10.5255 4.03011 10.5255 5.05347V12.3902C10.5047 12.3734 10.4859 12.3551 10.4645 12.3393C10.0432 12.0297 9.50957 11.9054 8.989 11.9119C8.46836 11.9185 7.95195 12.0514 7.544 12.3291C7.14883 12.5983 6.85534 13.0389 6.86224 13.5604C6.46176 13.2286 5.96108 13.0764 5.46815 13.072C4.9547 13.0674 4.43937 13.2181 4.05373 13.5502C3.7272 13.8315 3.50108 14.2552 3.4737 14.751C3.39594 14.6815 3.32495 14.6117 3.23967 14.5576C2.76957 14.2598 2.20868 14.2075 1.70315 14.344C0.692148 14.6169 -0.150959 15.6559 0.0241295 17.01C0.695828 22.2417 1.27528 24.4475 2.1712 28.2542C2.20699 28.3928 2.34355 28.4985 2.48667 28.4985C5.37499 28.4786 7.8639 28.4607 10.7494 28.4374C10.7526 28.4374 10.7562 28.4374 10.7595 28.4374C12.4039 28.3868 14.1243 26.9867 15.5217 24.5604C16.9193 22.1341 17.9902 18.6438 18.2285 14.2829C18.2334 14.1936 18.1992 14.1028 18.1369 14.0387C17.7892 13.6969 17.4538 13.4768 17.1194 13.3874C17.0148 13.3595 16.9167 13.3476 16.8141 13.3467C16.5883 13.3448 16.3673 13.4022 16.1832 13.5095C15.6475 13.8217 15.341 14.4449 15.074 15.097C14.9132 15.4897 14.772 15.8854 14.6467 16.2672C14.6177 13.1682 14.6567 9.29925 14.6567 5.05347C14.6567 4.03011 13.6986 3.24219 12.5912 3.24219ZM12.5912 3.89344C13.3967 3.89344 14.0056 4.44769 14.0056 5.05347C14.0056 9.94591 13.9525 14.3808 14.0157 17.6714C14.0627 18.974 14.5835 18.3259 15.0231 17.1931C15.221 16.6377 15.4265 15.9468 15.6744 15.3412C15.9223 14.7356 16.2283 14.2429 16.5088 14.0794C16.6491 13.9977 16.7755 13.97 16.9565 14.0183C17.1155 14.0608 17.3178 14.1803 17.5671 14.405C17.3173 18.6077 16.2807 21.9455 14.9621 24.2348C13.6291 26.549 12.0108 27.7447 10.7392 27.7862C7.94628 27.8086 5.514 27.8281 2.74098 27.8472C1.87892 24.1951 1.31823 22.0156 0.665121 16.9286C0.528848 15.8757 1.17235 15.1648 1.87605 14.9749C2.22792 14.8798 2.57843 14.9139 2.88347 15.1071C3.18855 15.3004 3.45973 15.6668 3.59574 16.2875V16.2976C3.599 16.3045 3.60225 16.3113 3.60584 16.3178L3.64654 16.8062C3.63156 16.9934 3.80971 17.1718 3.99691 17.1569C4.18415 17.1419 4.33195 16.9378 4.2876 16.7553L4.24689 16.2262C4.24689 16.2021 4.24266 16.1782 4.2368 16.155V16.1449C4.2368 16.1416 4.2368 16.1381 4.2368 16.1348L4.13504 14.9646C4.09704 14.5354 4.23794 14.2582 4.48102 14.0488C4.72419 13.8393 5.08446 13.7198 5.45789 13.7231C5.83135 13.7265 6.20194 13.8475 6.47547 14.0895C6.7148 14.3012 6.88966 14.6013 6.93336 15.0358C6.93662 15.0619 6.94183 15.09 6.94346 15.1172C6.94671 15.1647 6.95127 15.2122 6.95355 15.2597C6.95355 15.2698 6.95355 15.2799 6.95355 15.2903C6.9669 15.5611 6.9809 15.833 6.99425 16.1044C6.97504 16.2919 7.15065 16.4747 7.33883 16.4627C7.52701 16.4507 7.67819 16.2472 7.63531 16.0637C7.62294 15.8116 7.60698 15.5624 7.59461 15.3106C7.59786 15.2869 7.59786 15.2631 7.59461 15.2394C7.59819 15.2326 7.60177 15.2261 7.6047 15.2192C7.6047 15.1316 7.5933 15.0479 7.58419 14.9648C7.58419 14.9547 7.58419 14.9443 7.58419 14.9342C7.56172 14.4819 7.537 14.0343 7.51297 13.5809C7.49799 13.2791 7.63668 13.0546 7.90981 12.8686C8.18334 12.6823 8.59212 12.5684 8.99863 12.5633C9.40514 12.5581 9.80377 12.6675 10.0773 12.8686C10.3508 13.0696 10.5214 13.3355 10.5148 13.7945C10.5115 13.8287 10.5148 13.8632 10.5249 13.8963V14.4967C10.5216 14.6687 10.6785 14.8269 10.8505 14.8269C11.0226 14.8269 11.1786 14.6687 11.1762 14.4967V5.05357C11.1762 4.44779 11.7813 3.89354 12.5906 3.89354L12.5912 3.89344Z" fill="black"/>
</svg>
