<svg width="28" height="24" viewBox="0 0 28 24" fill="none" xmlns="http://www.w3.org/2000/svg">
<path d="M0 12.9285V2.95068V2.95202C0.00133617 1.6064 1.09172 0.516015 2.43734 0.514681H9.65323C9.7 0.514681 9.74543 0.533389 9.77884 0.566794C9.81224 0.600201 9.83095 0.645634 9.83095 0.692403C9.83095 0.739173 9.81224 0.784604 9.77884 0.818012C9.74543 0.851419 9.7 0.870125 9.65323 0.870125H2.43734C1.28815 0.872798 0.358126 1.80285 0.355458 2.95201V12.9299V12.9285C0.366148 14.0724 1.29352 14.9944 2.43734 14.9957H17.855C19.0042 14.9944 19.9342 14.063 19.9369 12.9152V2.93733C19.9342 1.78947 19.0042 0.858116 17.855 0.856781H12.824C12.7251 0.856781 12.6463 0.776604 12.6463 0.677722C12.6463 0.580174 12.7251 0.5 12.824 0.5H17.855C19.2019 0.5 20.2923 1.59172 20.2923 2.93734V12.9152C20.2923 13.5606 20.0358 14.1806 19.5788 14.6377C19.1218 15.0946 18.5018 15.3525 17.855 15.3525H2.43734C1.09572 15.3525 0.00800473 14.2701 0 12.9285ZM25.5628 8.22491H23.8484L23.8497 7.09176C23.8537 5.77286 22.8021 4.69318 21.4832 4.66243C21.387 4.66243 21.3068 4.73726 21.3015 4.83347C21.3001 4.88157 21.3175 4.92968 21.3522 4.96442C21.387 5.0005 21.4338 5.01921 21.4832 5.01787C22.611 5.04594 23.5076 5.97198 23.4996 7.09975V17.0776V17.0763C23.4983 18.2255 22.5669 19.1555 21.4191 19.1582H5.99319C4.84533 19.1555 3.91397 18.2254 3.91264 17.0763V16.8585V16.8598C3.91264 16.8117 3.89393 16.7663 3.86053 16.7329C3.82712 16.6995 3.78169 16.6807 3.73358 16.6807C3.63604 16.6807 3.55586 16.7609 3.55586 16.8598V17.0776V17.0763C3.5572 18.4219 4.64758 19.5123 5.9932 19.5136H21.4122C22.7565 19.5123 23.8469 18.4219 23.8496 17.0763V8.55638C23.8643 8.55905 23.8803 8.55905 23.895 8.55638H25.5627C26.7118 8.55905 27.6419 9.4891 27.6445 10.6383V20.6161V20.6148C27.6419 21.764 26.7118 22.694 25.5627 22.6967H10.145C8.9958 22.694 8.06578 21.7639 8.06311 20.6148C8.06311 20.568 8.0444 20.5226 8.011 20.4892C7.97759 20.4558 7.93216 20.4371 7.88539 20.4371C7.78651 20.4371 7.70767 20.5172 7.70767 20.6148C7.70767 21.9617 8.79805 23.0521 10.145 23.0521H25.5627C26.9083 23.0508 27.9987 21.9604 28 20.6148V10.6369V10.6383C27.9866 9.30201 26.899 8.22491 25.5628 8.22491ZM1.92421 18.4632C1.82533 18.4632 1.74515 18.5421 1.74515 18.6409V21.4351C1.74515 21.4818 1.76386 21.5273 1.79727 21.5607C1.83067 21.5941 1.87611 21.6128 1.92421 21.6128H4.73572C4.78249 21.6128 4.82792 21.5941 4.86133 21.5607C4.89474 21.5273 4.91344 21.4818 4.91344 21.4351C4.91344 21.387 4.89473 21.3415 4.86133 21.3081C4.82792 21.2747 4.78249 21.256 4.73572 21.256H2.10196V18.641C2.10196 18.5942 2.08325 18.5488 2.04984 18.5153C2.01644 18.4819 1.97098 18.4632 1.92421 18.4632ZM25.9702 5.63512H25.9689C26.017 5.63512 26.0624 5.61641 26.0958 5.583C26.1292 5.5496 26.1479 5.50416 26.1479 5.45606V2.66997C26.1479 2.6232 26.1292 2.57777 26.0958 2.54436C26.0624 2.51095 26.017 2.49225 25.9689 2.49225H23.1761C23.0772 2.49225 22.997 2.57109 22.997 2.66997C22.997 2.76885 23.0772 2.84769 23.1761 2.84769H25.7911V5.46408C25.7911 5.51085 25.8098 5.55628 25.8433 5.58968C25.8767 5.62309 25.9221 5.6418 25.9689 5.6418L25.9702 5.63512Z" fill="black"/>
</svg>
