<svg width="21" height="27" viewBox="0 0 21 27" fill="none" xmlns="http://www.w3.org/2000/svg">
<path d="M20.9968 6.3817C20.9968 6.32444 20.9766 6.26942 20.9362 6.22899L15.2678 0.560636C15.2274 0.520214 15.1702 0.5 15.1151 0.5H0.954442C0.428943 0.5 0 0.927822 0 1.45444V25.8477C0 26.3732 0.427822 26.8022 0.954442 26.8022H20.0444C20.5699 26.8022 20.9989 26.3743 20.9989 25.8477L21 6.38145L20.9968 6.3817ZM15.3308 1.23336L20.2635 6.16611H15.8539C15.5665 6.16611 15.3307 5.93031 15.3307 5.64285L15.3308 1.23336ZM20.0456 26.3688H0.952197C0.66474 26.3688 0.42894 26.133 0.42894 25.8456V1.45231C0.42894 1.16486 0.664743 0.929055 0.952197 0.929055H14.8973V5.64277C14.8973 6.16827 15.3251 6.59721 15.8517 6.59721H20.5654V25.8456C20.5654 26.133 20.3296 26.3688 20.0422 26.3688H20.0456ZM16.996 9.21344C16.996 9.33134 16.8983 9.42903 16.7804 9.42903H3.84487C3.72697 9.42903 3.62928 9.33134 3.62928 9.21344C3.62928 9.09554 3.72697 8.99785 3.84487 8.99785H16.7804C16.8983 8.99785 16.996 9.09554 16.996 9.21344ZM16.996 11.4323C16.996 11.5502 16.8983 11.6479 16.7804 11.6479H3.84487C3.72697 11.6479 3.62928 11.5502 3.62928 11.4323C3.62928 11.3144 3.72697 11.2167 3.84487 11.2167H16.7804C16.8983 11.2167 16.996 11.3144 16.996 11.4323ZM16.996 13.6488C16.996 13.7667 16.8983 13.8644 16.7804 13.8644H3.84487C3.72697 13.8644 3.62928 13.7667 3.62928 13.6488C3.62928 13.5309 3.72697 13.4332 3.84487 13.4332H16.7804C16.8983 13.4332 16.996 13.5309 16.996 13.6488ZM16.996 15.8654C16.996 15.9833 16.8983 16.081 16.7804 16.081H3.84487C3.72697 16.081 3.62928 15.9833 3.62928 15.8654C3.62928 15.7475 3.72697 15.6498 3.84487 15.6498H16.7804C16.8983 15.6498 16.996 15.7475 16.996 15.8654ZM9.59975 18.0842C9.59975 18.2021 9.50207 18.2998 9.38416 18.2998H3.83941C3.72151 18.2998 3.62382 18.2021 3.62382 18.0842C3.62382 17.9663 3.72151 17.8686 3.83941 17.8686H9.38416C9.50207 17.8686 9.59975 17.9663 9.59975 18.0842Z" fill="black"/>
</svg>
