<svg width="28" height="25" viewBox="0 0 28 25" fill="none" xmlns="http://www.w3.org/2000/svg">
<path d="M14.0128 14.9871L19.2713 9.45929C20.561 8.11533 20.5566 6.0354 19.2589 4.71989C18.6349 4.11457 17.7958 3.78125 16.898 3.78125C16.0518 3.78125 15.2652 4.07724 14.6243 4.639L13.9977 5.19009L13.3817 4.62478C12.7968 4.08791 11.9924 3.79192 11.116 3.79192C10.1854 3.79192 9.34183 4.12702 8.74007 4.735C7.45211 6.04073 7.45123 8.11267 8.73741 9.45396L14.0128 14.9871ZM9.05651 5.04788C9.57383 4.52523 10.3054 4.23724 11.116 4.23724C11.8795 4.23724 12.5782 4.49145 13.0813 4.95366L13.9924 5.78741L14.9177 4.97321C15.4759 4.48434 16.1603 4.22568 16.898 4.22568C17.6802 4.22568 18.4091 4.51456 18.9469 5.03543C20.0713 6.17406 20.073 7.98201 18.9504 9.15264L14.0128 14.3427L9.05917 9.14641C7.93921 7.98023 7.93832 6.18028 9.05651 5.04788Z" fill="black"/>
<path d="M5.62916 18.4728H16.459L23.2073 24.0201V18.4061C25.953 17.983 28 15.5635 28 12.6943V6.27848C28 3.09192 25.4739 0.5 22.37 0.5H5.62916C2.52525 0.5 0 3.09192 0 6.27848V12.6943C0 15.8808 2.52525 18.4728 5.62916 18.4728ZM0.44443 6.27848C0.44443 3.33724 2.76969 0.94443 5.62916 0.94443H22.3691C25.2285 0.94443 27.5547 3.33724 27.5547 6.27848V12.6943C27.5547 15.4062 25.5787 17.6826 22.9584 17.991L22.7619 18.0132V23.0788L16.6181 18.0274H5.62916C2.76969 18.0274 0.44443 15.6346 0.44443 12.6934V6.27848Z" fill="black"/>
</svg>
